<?xml version="1.0" standalone="no"?>
<!DOCTYPE svg PUBLIC "-//W3C//DTD SVG 20010904//EN"
 "http://www.w3.org/TR/2001/REC-SVG-20010904/DTD/svg10.dtd">
<svg version="1.0" xmlns="http://www.w3.org/2000/svg"
 width="700.000000pt" height="700.000000pt" viewBox="0 0 700.000000 700.000000"
 preserveAspectRatio="xMidYMid meet">
<metadata>
Created by potrace 1.11, written by Peter Selinger 2001-2013
</metadata>
<g transform="translate(0.000000,700.000000) scale(0.100000,-0.100000)"
fill="#000000" stroke="none">
<path d="M2255 6985 c-178 -41 -316 -131 -459 -298 -136 -161 -278 -468 -322
-702 -2 -11 -8 -42 -13 -70 -45 -230 -48 -553 -6 -786 22 -122 26 -142 30
-149 2 -4 7 -21 10 -40 12 -68 69 -220 130 -345 182 -375 456 -585 764 -585
89 0 172 18 263 58 171 75 343 251 471 482 53 97 130 296 152 396 23 104 36
167 40 200 3 21 8 50 10 64 22 129 22 463 0 591 -2 13 -9 51 -14 84 -29 172
-65 297 -128 444 -145 340 -365 567 -623 646 -75 22 -230 28 -305 10z"/>
<path d="M4465 6980 c-98 -26 -138 -44 -230 -105 -149 -99 -274 -250 -376
-454 -85 -172 -153 -388 -174 -556 -3 -22 -7 -51 -10 -65 -8 -39 -18 -207 -18
-295 0 -84 12 -295 18 -305 1 -3 6 -25 9 -50 6 -44 9 -62 22 -125 30 -152 110
-365 186 -500 183 -322 420 -499 690 -512 268 -14 511 131 705 422 96 144 206
414 238 584 6 33 23 127 29 166 25 146 26 496 1 640 -7 43 -16 96 -21 125 -3
14 -7 33 -10 42 -3 9 -6 25 -8 35 -2 10 -15 56 -29 103 -126 430 -384 748
-682 840 -98 30 -247 35 -340 10z"/>
<path d="M510 4787 c-165 -56 -277 -165 -352 -342 -53 -126 -75 -257 -73 -432
4 -238 58 -454 176 -701 197 -415 515 -709 850 -788 64 -15 196 -12 269 7 391
101 553 636 371 1224 -110 353 -323 669 -585 867 -91 68 -183 117 -293 154
-111 38 -270 43 -363 11z"/>
<path d="M6211 4799 c-548 -107 -1050 -857 -1036 -1546 10 -456 253 -754 603
-739 48 2 100 7 115 10 170 38 375 163 527 322 96 101 118 128 195 244 253
380 359 861 269 1225 -61 252 -214 426 -420 479 -66 17 -181 19 -253 5z"/>
<path d="M3459 3386 c-2 -2 -35 -7 -74 -11 -38 -4 -73 -9 -76 -11 -4 -2 -24
-6 -45 -9 -22 -3 -50 -10 -64 -15 -14 -5 -56 -18 -93 -30 -277 -85 -495 -264
-818 -671 -110 -139 -118 -148 -231 -308 -53 -75 -101 -140 -105 -146 -21 -26
-274 -414 -308 -473 -5 -9 -42 -69 -82 -132 -220 -354 -317 -561 -338 -725
-26 -200 27 -422 132 -554 119 -151 285 -240 526 -285 113 -20 436 -15 537 8
133 32 356 128 457 197 62 43 136 75 249 108 142 42 251 54 484 55 278 0 387
-13 550 -66 75 -24 210 -90 233 -113 16 -16 190 -100 257 -124 19 -7 44 -17
55 -21 11 -5 34 -12 50 -16 17 -4 32 -8 35 -9 86 -24 113 -26 290 -30 237 -5
388 19 539 87 348 155 494 539 357 935 -37 110 -164 353 -261 503 -12 19 -62
98 -110 174 -105 165 -317 478 -429 631 -78 108 -283 375 -295 385 -3 3 -26
30 -51 60 -124 153 -300 331 -380 384 -163 109 -334 172 -575 211 -70 11 -406
20 -416 11z"/>
</g>
</svg>
